<?xml version="1.0" standalone="no"?>
<!DOCTYPE svg PUBLIC "-//W3C//DTD SVG 20010904//EN"
 "http://www.w3.org/TR/2001/REC-SVG-20010904/DTD/svg10.dtd">
<svg version="1.0" xmlns="http://www.w3.org/2000/svg"
 width="600.000000pt" height="600.000000pt" viewBox="0 0 600.000000 600.000000"
 preserveAspectRatio="xMidYMid meet">
<metadata>
Created by potrace 1.16, written by Peter Selinger 2001-2019
</metadata>
<g transform="translate(0.000000,600.000000) scale(0.100000,-0.100000)"
fill="#000000" stroke="none">
<path d="M3043 5110 c54 -64 81 -153 80 -270 -2 -161 -61 -305 -199 -487 -83
-110 -136 -209 -159 -298 -42 -165 15 -338 161 -492 l74 -78 -45 73 c-178 282
-167 465 44 728 128 159 190 301 199 459 2 50 -1 114 -7 145 -23 108 -87 212
-154 247 l-31 15 37 -42z"/>
<path d="M3233 4108 c-29 -32 -55 -86 -64 -133 -13 -72 8 -141 98 -322 81
-160 87 -176 87 -235 0 -76 -14 -107 -93 -206 -32 -40 -68 -94 -80 -120 l-22
-47 -297 0 c-238 0 -317 -4 -397 -18 -353 -62 -535 -166 -535 -307 0 -137 177
-244 504 -303 105 -19 157 -22 401 -22 214 0 309 4 405 18 126 18 385 75 377
84 -3 2 -31 -3 -63 -11 -33 -8 -115 -23 -184 -32 -160 -21 -579 -15 -740 11
-234 37 -432 97 -527 160 -123 82 -101 146 80 230 172 79 459 132 770 142
l197 6 0 -49 c0 -27 9 -68 20 -91 22 -49 34 -58 19 -14 -6 16 -9 55 -7 87 l3
59 80 -3 c44 -2 121 -10 170 -18 154 -25 154 -25 109 -10 -36 12 -205 46 -307
61 l-38 6 18 31 c10 17 50 66 89 109 96 104 119 153 118 244 -1 86 -23 142
-110 287 -89 147 -107 191 -107 263 -1 46 6 73 26 113 14 28 25 52 23 52 -1 0
-12 -10 -23 -22z"/>
<path d="M4077 2731 c-32 -11 -61 -21 -63 -23 -2 -3 33 -4 79 -4 110 1 176
-22 237 -83 53 -54 70 -100 70 -194 0 -236 -187 -449 -571 -652 -115 -61 -100
-64 56 -13 259 84 464 239 552 415 50 100 67 174 61 273 -8 126 -66 218 -171
269 -66 32 -174 37 -250 12z"/>
<path d="M4029 2650 c-105 -55 -190 -223 -244 -481 -42 -202 -81 -299 -169
-415 -184 -246 -578 -345 -985 -248 -113 27 -276 113 -358 189 -185 170 -302
447 -333 784 l-7 86 -2 -110 c0 -60 6 -151 14 -200 72 -443 306 -725 680 -820
283 -72 573 -52 791 56 211 103 354 291 411 539 13 58 37 159 52 225 34 146
84 258 140 314 34 34 47 41 81 41 86 0 161 -65 180 -157 31 -142 -57 -297
-224 -397 -71 -42 -63 -47 11 -8 142 73 224 171 249 294 28 140 -14 242 -125
300 -62 33 -111 35 -162 8z"/>
<path d="M1721 2215 c-373 -126 -534 -326 -430 -533 118 -238 587 -423 1218
-482 165 -15 570 -13 743 4 617 63 1088 252 1207 484 30 58 26 64 -7 11 -83
-131 -293 -243 -593 -319 -637 -161 -1541 -135 -2094 60 -94 34 -226 96 -279
132 -55 37 -127 112 -148 153 -83 160 72 342 409 481 139 57 128 61 -26 9z"/>
<path d="M4575 1461 c-47 -20 -91 -110 -81 -166 23 -118 234 -191 368 -126
105 50 134 158 50 180 -38 10 -62 7 -156 -23 -48 -16 -57 -15 -131 8 -11 4 -2
-3 20 -14 48 -24 74 -25 139 -5 93 28 176 11 150 -32 -26 -42 -165 -56 -264
-27 -61 18 -130 78 -130 113 0 20 1 21 24 6 28 -19 100 -22 221 -10 69 6 85
10 68 18 -13 6 -60 6 -125 0 -127 -11 -173 -5 -173 22 0 34 41 46 140 43 68
-3 102 -9 135 -25 41 -20 43 -20 22 -3 -50 41 -216 65 -277 41z m0 -189 c53
-43 144 -66 237 -60 40 3 82 9 93 14 18 7 18 6 6 -9 -15 -19 -100 -47 -143
-47 -16 0 -61 7 -101 16 -61 14 -79 23 -114 59 -36 36 -43 49 -43 81 l1 39 13
-31 c8 -17 31 -44 51 -62z"/>
<path d="M1003 1412 c-25 -16 -73 -98 -73 -125 0 -99 120 -187 256 -187 71 0
119 23 151 71 24 37 25 40 9 64 -21 32 -52 39 -142 32 -43 -4 -85 -2 -101 4
-23 8 -26 8 -15 -3 8 -8 51 -15 115 -18 110 -5 127 -11 127 -41 0 -70 -221
-32 -302 53 -64 66 -45 138 37 138 55 0 153 -30 196 -61 18 -12 29 -17 25 -11
-35 56 -234 115 -283 84z"/>
<path d="M1645 1314 c45 -37 218 -119 323 -153 574 -187 1422 -167 1940 44 70
28 232 119 232 130 0 1 -35 -12 -78 -31 -281 -122 -897 -193 -1422 -165 -422
23 -741 79 -944 166 -74 31 -78 32 -51 9z"/>
<path d="M4096 1155 c-154 -63 -191 -108 -176 -212 10 -76 36 -114 93 -142
135 -65 382 44 425 187 20 65 15 110 -14 138 -21 22 -31 25 -61 19 -48 -9 -68
-23 -139 -98 -48 -51 -70 -67 -114 -80 l-55 -17 45 6 c60 8 86 23 140 79 54
56 113 89 145 81 51 -13 36 -59 -42 -122 -123 -101 -339 -126 -383 -45 -10 20
-8 21 28 21 48 0 121 36 192 96 30 25 69 52 85 60 30 13 30 13 4 14 -14 0 -49
-17 -80 -39 -98 -72 -168 -112 -204 -118 -32 -5 -35 -4 -35 19 0 40 33 72 121
118 63 33 98 44 153 50 l71 7 -70 1 c-53 1 -84 -4 -129 -23z m329 -159 c-22
-46 -95 -113 -151 -137 -73 -33 -172 -50 -222 -38 -55 12 -82 30 -106 70 l-19
33 30 -22 c17 -12 54 -27 82 -34 103 -23 258 30 347 118 27 27 51 48 52 47 2
-1 -4 -17 -13 -37z"/>
</g>
</svg>
